<svg version="1" xmlns="http://www.w3.org/2000/svg" width="1600" height="1600" viewBox="0 0 1200.000000 1200.000000"><path d="M43.4 76.7c-.6.7-1.5 3.3-1.9 5.8-.3 2.6-.8 5.7-1.1 6.8-.2 1.2-1.1 5.6-1.9 9.7-.8 4.1-1.7 8.6-2 10-.9 4.6-4.4 23.4-5.1 27.4-.3 2.1-.7 4.6-.9 5.5-.1.9-.6 3.6-1 6.1-.4 2.5-.9 5.4-1.1 6.5-.3 1.1-.9 4.9-1.4 8.5-.5 3.6-1.2 7.4-1.4 8.5-.2 1.1-.7 4.2-1 7-1.3 9.3-1.7 12-2.3 16-.7 4.7-.8 5.4-2.3 17-.6 4.9-1.3 10.1-1.5 11.5-.3 2.5-1.2 9.1-2 16.7-.3 2.4-.7 6.2-1 8.5-.3 2.4-.7 6.5-1 9.3-.3 2.7-.8 6.6-1 8.5-.2 1.9-.7 6.4-1 10-.3 3.6-.8 8.1-1 10-.4 3.4-1.4 14.3-2 22.5-.2 2.2-.7 7.6-1 12-.4 4.4-.8 9.6-1 11.5-.2 1.9-.6 8.4-1 14.5-.3 6-.8 13-1 15.5-.2 2.5-.6 9.9-1 16.5-.3 6.6-.8 14.9-1 18.5-.2 3.6-.7 14.8-1 25-.4 10.2-.8 23.2-1.1 29-.5 13-.5 110.5 0 125.5 1.2 34.4 1.8 47.7 2.1 53.5.2 3.6.7 11 1 16.5.5 10.6 1.3 21.7 2 30 .2 2.7.7 8.8 1 13.5.4 4.7.8 9.6 1 11 .2 1.4.6 6.1.9 10.5.4 4.4.8 9.6 1.1 11.5.2 1.9.7 6.2 1 9.5 1 9.9 1 10.6 5.1 42 .2 1.6.6 5 .9 7.5.3 2.5.7 5.6 1 7 .2 1.4.7 4.3 1 6.5.5 3.5 2.9 18.7 4.1 25.5.2 1.4.8 5.2 1.4 8.5.5 3.3 1.2 7.1 1.5 8.5.3 1.4.7 3.8 1 5.5.3 1.6 2.2 10.6 4.1 20 2 9.3 3.8 17.9 4 19 1 5.7 8 32.6 11.5 44.9 10.2 35.4 19.4 59.9 33 88.1 26.2 54.3 59.1 88.2 99.1 102.3 13.5 4.8 24.3 6.4 40.8 6.2 5.8 0 196.1-.1 423-.1 404.7-.1 412.6-.1 420.3-2 7.7-1.9 16.3-4.8 22.2-7.4 1.7-.7 5.5-2.4 8.5-3.8 13.5-5.9 33.9-20.1 46.8-32.6 53.1-51.2 73.7-139.7 47.5-204.1-7.9-19.4-19-33.4-36.2-45.8l-6.3-4.5-109.1-.1-109.1-.1-.7-3.5c-.4-1.9-1-5.3-1.3-7.5-.4-2.2-.8-5.1-1.1-6.5-.5-2.9-3.1-21.5-3.9-28-.3-2.5-.8-5.4-1-6.5-.2-1.1-.7-5.1-1.1-8.8-.3-3.7-.8-7.6-.9-8.5-.2-.9-.7-4.9-1.1-8.7-.4-3.9-.8-8.1-1-9.5-.2-1.4-.6-5.7-.9-9.5-.4-3.9-.9-8.6-1.1-10.5-.2-1.9-.7-7.1-1-11.5-.3-4.4-.8-9.8-1-12-.2-2.2-.7-8.7-1-14.5-.3-5.8-.8-12.1-1-14-.2-1.9-.7-10-1.1-18-.3-8-.7-16.8-.9-19.5-2.7-48.4-2.2-161.5 1-215.5.2-4.7.7-12.8 1-18 .3-5.2.7-12.4 1-16 .3-3.6.7-10.6 1-15.5.3-5 .7-10.8.9-13 .2-2.2.7-8.3 1.1-13.5.3-5.2.8-10.6 1-12 .2-1.4.7-6.1 1-10.6.3-4.4.7-8.9.9-10 .2-1 .7-5.7 1.1-10.4.4-4.7.8-9.2 1-10 .1-.8.6-4.9 1-9 .3-4.1.8-8.6 1-10 .2-1.4.7-5 1-8 .3-3 .8-6.6 1-8 .2-1.4.6-5 1-8 .3-3 .8-6.6 1-8 .2-1.4.7-4.9 1-7.9.4-3 .8-6.1 1-7 .1-.9.6-4.1 1-7.1s.9-6.2 1-7.1c.2-.9.6-4 1-7s.8-5.6 1-5.9c.2-.3.6-3 1-6 .9-8.1 2.3-16.7 3.1-19.1.2-.9.6-3.5.9-5.7.2-2.2 1.1-7.5 1.9-11.8 5.4-27.7 10.7-55.3 11.1-57.4.3-1.4.9-4.4 1.4-6.8l.8-4.2-21.6-.1c-11.9 0-87.7-.2-168.6-.4-80.8-.2-260.2-.7-398.5-1-138.3-.4-266.3-.8-284.4-.8-24.5-.2-33.3.1-34.2 1zM456 143.6c140 .3 290.4.6 334.2.7 43.9.1 79.8.2 79.8.3 0 0-.4 2.5-1 5.5-1.3 7.5-1.7 9.9-3.5 21.9-.9 5.8-1.8 11.6-2 13-.2 1.4-.7 4.5-1 7-.3 2.5-.8 5.2-1 6-.2.8-.6 4-1 7.1-.3 3.1-.8 6.7-1 8-.3 1.2-.7 4.5-1 7.3-.5 4.7-1 8.8-2 15.6-.2 1.4-.7 5-1 8-.3 3-.8 7.1-1 9-.2 1.9-.7 6-1 9-.3 3-.8 7.1-1 9-.4 3.4-1 8.9-2 19.3-.3 2.8-.7 7.2-1 9.7-.2 2.5-.7 7.9-1 12-.3 4.1-.8 9.5-1 12-.2 2.5-.7 7.6-1 11.5-.3 3.8-.8 9.7-1.1 13-.2 3.3-.7 9.4-.9 13.5-.2 4.1-.7 10.9-.9 15-2 31.7-3.2 58.3-4.1 92.5-.5 18.6-.5 109.3 0 124.5.9 27.7 1.6 45 2 49.5.2 2.7.7 10.6 1 17.5.9 17 1.4 25.2 3 43.5.2 2.7.7 7.9 1 11.5.9 11 1.5 17.2 2.5 26 .5 4.7 1.2 11.2 1.5 14.5.4 3.3.8 7.1 1 8.5.4 2.2 2.8 21.9 4.1 32.5.3 2.2.7 4.7.9 5.5.2.8.7 3.7 1.1 6.5.3 2.7.9 6.9 1.4 9.3.4 2.3.5 4.4.1 4.6-.3.2-4 .3-8.1.2l-7.4-.1-1.2-6c-.7-3.3-1.6-8.7-1.9-12-.4-3.3-.8-6.7-1-7.5-.2-.8-.6-5.1-.9-9.5-.4-4.4-.9-10-1.1-12.5-.3-2.5-.7-7.7-1-11.5-.8-10.6-2.1-23.7-3-31-.3-2.2-.8-5.8-1.1-8-2.5-19.5-10.7-54.3-14.2-60-.4-.6-.7-1.5-.8-2.1-.4-2.3-9.6-19.9-13.6-25.7-10.6-15.7-19.8-22-31.8-22-7.9 0-12.4 1.8-18.4 7.3-6.5 6-13 20.6-16 35.5-.4 1.6-.9 4.1-1.1 5.5-1.6 7.8-2.5 14.6-3.1 23-.3 4.1-.7 8.4-.8 9.5-.3 2-1.2 2-48.9 2.3-38.6.2-48.7 0-48.8-1 0-.7-.2-2.2-.4-3.3-.2-1.1-.7-4.2-1-6.9-.4-2.7-.9-5.8-1.1-7-.2-1.2-.7-3.5-1-5.1-.7-4.2-2.5-10.6-3.5-13-.5-1.1-1.8-4.5-2.9-7.5-5.2-14.4-17.4-30.2-25.7-33.7-9.5-3.9-21.2-2.3-28.6 3.8-4 3.3-12.7 15.6-19.6 27.8-10.3 18.3-20.7 46.5-23.6 64.1-.3 1.9-.7 4.6-1 6-.3 1.4-.7 4.1-1 6-.3 1.9-.7 4.6-1 6-1.8 10.1-2.2 33.6-1.2 66.5.3 11.1.3 20.5-.1 21.1-.5.8-47.5 1.1-157.7 1.1-86.3 0-157.1.3-157.3.7-.2.4 15.1 11.8 34 25.2 18.9 13.5 35 25 35.8 25.7.8.7 4.1 3 7.3 5.2 11.7 7.9 17.1 16.8 20.6 33.7 1.5 7.3 1.8 12.3 1.5 23.3-.4 16-.7 18.9-3.5 30-9.9 38.7-33.1 68.6-64.5 83.1-4.2 2-9.7 4.2-12.3 5-5.5 1.7-17 1.8-22.6.3-38.4-10.5-73.4-69.6-98-165.3-6.8-26.4-8.5-33.8-15-68.6-.5-2.8-4.4-26.1-5-30-.2-1.4-.6-4.3-.9-6.5-.4-2.2-.9-5.8-1.1-8-.3-2.2-.7-5.1-1-6.5-.2-1.4-.7-4.5-1-7-.3-2.5-.8-5.6-1-7-.2-1.4-.7-5.3-1-8.8-.4-3.5-.8-7.1-1-8-.1-.9-.6-5.1-1-9.2s-.9-8.2-1-9c-.1-.8-.6-5.5-1-10.4-.4-5-.8-9.7-1-10.5-.1-.9-.6-5.7-.9-10.6-.4-5-.9-10.8-1.1-13-.3-2.2-.7-8.1-1-13-.3-5-.7-11.9-1-15.5-.2-3.6-.7-11.7-1-18-.3-6.3-.8-14.9-1-19-2.4-44-2.4-151 0-197 .1-3 .6-11.6 1-19 .3-7.4.8-16 1-19 .2-3 .7-10.5 1-16.5.3-6.1.8-12.8 1-15 .2-2.2.7-7.8 1-12.5.4-4.7.8-10.8 1.1-13.5.2-2.8.6-7.7.9-11 .3-3.3.7-8.3 1-11 .3-2.8.8-7.3 1.1-10 .2-2.8.7-7 .9-9.5.3-2.5.7-7 1-10 .8-7.5 2.4-21.4 4-34 .3-1.9.7-5.8 1-8.5.3-2.8.8-6.1 1-7.5.2-1.4.7-5 1-8 .3-3 .8-6.2 1-7 .2-.8.7-3.5 1-6 .3-2.5.8-5.6 1-7 .2-1.4.6-4.1.9-6 .3-1.9 1.2-7.8 2-13 .9-5.2 1.8-11.2 2.2-13.4 1-6.6 2.4-13.8 2.9-14.6.2-.3 23.4-.4 51.7-.3 28.2.1 165.8.5 305.8.9zm321.4 507.8c6 8.3 10.6 17.1 14.4 27.6 1.8 5.2 3.5 10.2 3.7 11 .2.8 1.5 6.2 2.8 12 1.4 5.8 2.8 12.5 3.2 15 .4 2.5.9 5.2 1 6.1.2.9.6 4 1 7 .3 3 .8 6.5 1 7.9.2 1.4.7 5.4 1 9 .4 3.6.8 8.1 1 10 .2 1.9.6 6.9 1 11 .3 4.1.8 9.5 1 12 .2 2.5.7 7.9 1 12 .4 4.1.8 8.6 1 10 .2 1.4.7 5 1 8 .4 3 1 7.2 1.5 9.3.4 2 .5 3.9.1 4.1-.3.2-59 .3-130.3.3H553v-9.1c-.1-5-.3-13.6-.5-19.1-.7-14.7-.7-37-.1-44.5 2.4-27.7 8.5-51.3 19.1-73.5 4.2-8.8 13.7-24.8 16.2-27.5.8-.9 4.4 4.2 7.9 11.2 4.3 8.5 7.4 19.6 9 31.8 1.7 13.8 5.6 23.3 11.7 28.5 7.8 6.7 9 6.8 67.2 6.8 40.4 0 52.9-.3 56-1.3 8.5-2.8 16-9.2 19.5-16.7 2-4.3 2.3-6.2 3.5-20.6.6-7.8 1.2-12 2.6-19.7 2-10.5 6.4-24 7.8-24 .3 0 2.4 2.5 4.5 5.4zm344.4 239.9c2.9 1.9 8.4 16.2 9.9 25.9 1 6.7 1 28.7.1 35.3-5.6 37.1-23.3 68.4-49.4 87.6-7.6 5.6-19.9 12-28.4 14.8l-6.5 2.1-356.3-.2-356.2-.3 5.7-8.5c22.5-33.6 34.6-75.6 33.7-116.5-.1-7.7-.5-15.6-.8-17.5-.3-1.9-.8-5.3-1.1-7.5-.3-2.2-1.1-6.6-1.9-9.7-.7-3.2-1.2-5.9-1-6 .7-.7 751-.2 752.2.5z"/><path d="M735.2 209.2c-1.1 4.6-1.8 8.4-1.7 8.6.2.2 7.7.9 16.3 1.3 2.3.2 4.2.6 4.2.9 0 1-9.3 9.6-21 19.4-18.7 15.7-43.4 33.6-53.9 39-3.2 1.7-3.2 1.7-2.7-.8 1.8-10 13.1-49 16.6-57.1 1.4-3.4 6-16.6 6-17.3 0-1.2-37.9-.2-48 1.4-21.5 3.2-35.6 7.9-46.2 15.2-6.1 4.2-14.4 12.6-18.4 18.7-5.6 8.4-7.7 15.6-7.8 26.6-.1 8.9.1 9.9 2.9 14.4 1.7 2.7 4.5 5.8 6.3 6.8 6.7 3.9 15.3 1.6 19.9-5.3 3.4-5 3-9.8-1.6-18.5-4.2-7.8-4.5-11-1.6-16.5 5.6-10.8 27-21.2 48.9-23.7 4.4-.5 4.8-.4 4.3 1.3-1.8 6-3.8 13.4-4.1 15-.5 2.3-16.3 61.7-20.6 77.4-1.7 6.3-3.4 12.3-3.6 13.2-3.4 14.3-13 44.4-15.6 48.5-3.5 5.8-9.5 9.4-20.1 11.8l-7.5 1.8-.6 4.1c-.3 2.3-.8 6-1.2 8.4l-.6 4.3 2.9-.6c1.5-.4 3.4-.9 4.2-1.1.8-.3 3-.7 5-1 2-.3 5.4-.9 7.6-1.4 10.9-2.3 30-3 42.5-1.5 8.7 1 20.1 1.4 23.3.8 2.1-.4 2.7-1.2 3.3-4.6.3-2.3 1.2-5.9 2-7.9l1.3-3.7-8.7-.1c-8.7 0-15.7-1.1-17.3-2.7-.5-.5-.4-2.4.1-4.3s1.2-4.9 1.4-6.5c.8-4.4 16.7-66.2 18.2-70.4.3-1 1.7.4 4 3.7 7.2 10.8 12.7 23.7 24 56.4 18.4 53.5 33.9 75 61.4 85.4 6.8 2.5 8.7 2.8 20.5 2.8 11.3 0 13.8-.3 19-2.3 21.8-8.6 32.6-28 21.6-38.5-2.2-2.1-4.3-3-7.8-3.3-6.2-.6-10.9 2.4-14 9-1.3 2.6-3.3 6.8-4.5 9.4-3 6.3-7.2 8.6-14.9 8-12.6-1-23.1-10.3-32.9-29.2-5.9-11.3-8.9-19.1-20-52-13.7-40.6-18.2-51.5-24.6-60.2-1.3-1.7-2.4-3.4-2.4-3.6 0-.2 2.8-2.4 6.3-4.8 15.6-10.8 43.2-32.7 60-47.6 13.7-12 27.1-20.1 36.4-21.9 5.8-1.1 6.9-2.1 8.5-7.9l1.6-5.7-10.7.8c-13.6 1-39.6 1.1-53.3.1l-10.6-.7-2 8.2zM143.3 475.8c-2.1.3-2.2.7-2.1 12.7l.1 12.3 250.1-.1 250.1-.2v-11.8c0-6.5-.4-12.1-.9-12.4-1-.6-493.2-1.1-497.3-.5zM141.5 591c-.7 1.1-.5 24 .2 24.1 2.6.4 499.3.3 499.4-.1.7-3 .2-24-.6-24.1-3.3-.4-498.7-.3-499 .1zM149.5 719.6V732l3.5.1c1.9 0 31.9.2 66.5.4 34.7.3 92.5.7 128.5.9 105.5.7 109.2.8 109.6.4.5-.5.7-23.8.2-24.3-.3-.3-62.6-.8-247.8-2l-60.5-.4v12.5zM624.4 767.7l.1 21.8h14.2c9 .1 14.4-.3 14.6-1 .2-.5.3-10.2.3-21.5l-.1-20.5-14.6-.3-14.7-.3.2 21.8zM719.2 767.4c0 15.3.3 21.6 1.2 21.8.6.2 7.2.4 14.6.4l13.5-.1V746H719.2v21.4z"/></svg>